<?xml version="1.0" encoding="utf-8"?>
<!-- Generator: Adobe Illustrator 27.2.0, SVG Export Plug-In . SVG Version: 6.00 Build 0)  -->
<svg version="1.1" id="Слой_1" xmlns="http://www.w3.org/2000/svg" xmlns:xlink="http://www.w3.org/1999/xlink" x="0px" y="0px"
	 viewBox="0 0 130 130" style="enable-background:new 0 0 130 130;" xml:space="preserve">
<style type="text/css">
	.st0{fill:#D7EAF1;}
	.st1{fill:#4749D6;}
	.st2{fill:#051733;}
	.st3{fill:#1D3863;}
	.st4{fill:#F69779;}
	.st5{fill:#FFA33B;}
	.st6{fill:#F37A67;}
	.st7{fill:#7375F5;}
	.st8{fill:#3537A1;}
	.st9{fill:#FFFFFF;}
</style>
<g>
	<path class="st0" d="M129.56,65.47c0,15.39-5.37,29.53-14.33,40.64c-4.05,5.03-8.84,9.43-14.2,13.05c-1.35,0.92-2.74,1.79-4.16,2.6
		c-1.81,1.04-3.68,1.99-5.6,2.85c-6.75,3.03-14.11,4.94-21.85,5.48c-1.35,0.1-2.7,0.16-4.07,0.16c-0.19,0.01-0.39,0.01-0.58,0.01
		s-0.37,0-0.56-0.01c-2.62-0.01-5.2-0.19-7.74-0.52c-6.41-0.82-12.52-2.57-18.2-5.12c-1.92-0.86-3.79-1.81-5.6-2.85
		c-1.42-0.81-2.81-1.67-4.16-2.59c-5.36-3.62-10.15-8.03-14.2-13.06C5.34,95-0.03,80.86-0.03,65.47c0-35.79,29.01-64.8,64.8-64.8
		C100.55,0.67,129.56,29.68,129.56,65.47z"/>
	<g>
		<g>
			<path class="st1" d="M115.23,106.11c-4.05,5.03-8.84,9.43-14.2,13.05c-1.35,0.92-2.74,1.79-4.16,2.6
				c-1.81,1.04-3.68,1.99-5.6,2.85c-6.75,3.03-14.11,4.94-21.85,5.48c-1.35,0.1-2.7,0.16-4.07,0.16c-0.19,0.01-0.39,0.01-0.58,0.01
				s-0.37,0-0.56-0.01c-2.62-0.01-5.2-0.19-7.74-0.52c-6.41-0.82-12.52-2.57-18.2-5.12c-1.92-0.86-3.79-1.81-5.6-2.85
				c-1.42-0.81-2.81-1.67-4.16-2.59c-5.36-3.62-10.15-8.03-14.2-13.06c1.74-5.77,6.33-10.32,12.24-11.95l10.99-3.04l4.54-1.25
				l9.48-2.63l0.52-0.14l0.44-0.12l0.56-3.16v-0.01l0.57-3.15l0.28-1.61l0.86-4.79l0.18-1.05l0.76-4.23l7.92,3.1l1.12,0.44
				l1.12-0.44l7.92-3.1l0.76,4.23l0.13,0.77l0.5,2.82h0.01l0.68,3.86l1.13,6.32l0.44,0.12l0.53,0.15l9.47,2.62L92,91.13l10.99,3.03
				C108.9,95.79,113.49,100.34,115.23,106.11z"/>
			<path class="st2" d="M84.52,29.74c-2.31-4.34-6.73-6.74-10.81-8.06c-5.8-1.89-12.08-1.89-17.88,0c-4.07,1.33-8.5,3.73-10.81,8.06
				c-4.18,8-3.47,20.46-3.47,20.46l4.36,4.62l18.86-2.39l18.86,2.39l4.36-4.62C87.99,50.19,88.7,37.74,84.52,29.74z"/>
			<path class="st3" d="M58.34,31.76c0,0-6.92-7.32-2.67-12.71c0.23-0.29,0.59-0.44,0.95-0.44h0.72c0.63,0,1.22-0.31,1.57-0.83
				l1.33-1.94c0.41-0.6,1.28-0.64,1.74-0.08l0.36,0.43c0.43,0.52,1.22,0.56,1.7,0.08l0.87-0.87c0.41-0.41,1.08-0.43,1.51-0.03
				l0.88,0.81c0.47,0.43,1.2,0.4,1.63-0.07l0.26-0.29c0.51-0.56,1.42-0.45,1.78,0.23l0.99,1.87c0.22,0.41,0.7,0.62,1.15,0.48
				l0.36-0.11c0.59-0.18,1.21,0.1,1.47,0.65c0.97,2.01,2.58,6.92-1.77,11.59L58.34,31.76z"/>
			<path class="st4" d="M89.2,49.44c-0.12-0.8-0.42-1.61-1.03-2.14c-0.55-0.48-1.3-0.67-2.03-0.64c-0.73,0.03-1.43,0.27-2.09,0.59
				c0,0-0.06-18.44-6.6-18.65c-4.29-0.21-6.19,1.07-12.68,1.07c-6.49,0-8.4-1.29-12.68-1.07c-6.54,0.21-6.6,18.65-6.6,18.65
				c-0.66-0.32-1.36-0.56-2.09-0.59c-0.73-0.03-1.48,0.17-2.03,0.64c-0.61,0.53-0.9,1.34-1.03,2.14c-0.24,1.6,0.14,3.29,1.05,4.63
				c0.91,1.34,2.26,2.35,3.84,2.71c2.79,19.5,19.54,19.5,19.54,19.5s16.76,0,19.54-19.5c1.58-0.36,2.92-1.37,3.84-2.71
				S89.44,51.04,89.2,49.44z"/>
		</g>
		<path class="st5" d="M81.77,94.7l-12.35,35.39c-1.35,0.1-2.7,0.16-4.07,0.16c-0.19,0.01-0.39,0.01-0.58,0.01s-0.37,0-0.56-0.01
			c-2.62-0.01-5.2-0.19-7.74-0.52L47.78,94.7l3.78-7.46h3.15l22.73,0.01h0.55L81.77,94.7z"/>
		<path class="st4" d="M77.46,87.1c-0.07,0.56-0.22,1.1-0.46,1.62c-1.52,3.45-6.43,5.98-12.23,5.98c-6.68,0-12.18-3.35-12.69-7.6
			l0.44-0.12l0.56-3.17l1.71-9.55l0.94-5.28l7.92,3.1v6.12c0.37-0.02,0.74-0.03,1.12-0.03s0.75,0.01,1.12,0.03v-6.12l7.92-3.1
			l1.4,7.82l1.81,10.18L77.46,87.1z"/>
		<path class="st6" d="M77.46,87.1c-0.07,0.56-0.22,1.1-0.46,1.62c-2.26,0.8-3.88,0.51-3.88,0.51s-1.66,2.5-6.16,2.5
			c-4.51,0-6.17-2.5-6.17-2.5s-1.83,0.33-4.32-0.67c-1.95-0.81-2.91-2.87-3.39-4.75l1.71-9.55c0.12,0.11,0.24,0.22,0.36,0.33
			c2.27,2.03,5.22,3.14,8.27,3.14h7.07c1.63,0,3.23-0.32,4.72-0.93l1.81,10.18L77.46,87.1z"/>
		<g>
			<path class="st7" d="M86.15,113.66l5.12,10.95c-6.75,3.03-14.11,4.94-21.85,5.48c-1.35,0.1-2.7,0.16-4.07,0.16l12.64-43
				l9.47,2.62L92,91.13l7.4,13.03L86.15,113.66z"/>
			<path class="st7" d="M64.21,130.25c-2.62-0.01-5.2-0.19-7.74-0.52c-6.41-0.82-12.52-2.57-18.2-5.12l5.13-10.95l-13.25-9.5
				l7.39-13.04l4.54-1.25l9.48-2.63L64.21,130.25z"/>
		</g>
		<path class="st2" d="M84.05,47.25c-3.71,4.88-2.62,13.92-2.62,13.92c-1.01,2.11-3.01,4.21-4.86,5.86
			c-2.27,2.03-5.22,3.14-8.27,3.14h-3.53h-3.53c-3.05,0-6-1.11-8.27-3.14c-1.84-1.64-3.84-3.75-4.86-5.86c0,0,1.09-9.04-2.62-13.92
			c0,0-1.38,22.42,2.12,25.25c1.67,1.67,2.83,0,2.83,0s-0.15,6.83,3.84,8.5c2.49,1,4.32,0.67,4.32,0.67s1.66,2.5,6.16,2.5
			c4.5,0,6.16-2.5,6.16-2.5S72.77,82,75.26,81c3.99-1.67,3.84-8.5,3.84-8.5s1.17,1.67,2.83,0C85.43,69.66,84.05,47.25,84.05,47.25z"
			/>
		<g>
			<path class="st8" d="M101.03,119.16c-1.35,0.92-2.74,1.79-4.16,2.6l2.69-14.66L101.03,119.16z"/>
			<path class="st8" d="M32.67,121.76c-1.42-0.81-2.81-1.67-4.16-2.59l1.47-12.07L32.67,121.76z"/>
		</g>
		<g>
			<path class="st6" d="M63.83,45.6v11.44h1.94C69.09,57.04,64.45,46.91,63.83,45.6z"/>
			<g>
				<g>
					<path class="st2" d="M77.93,41.14c-2.68-1.32-5.66-1.52-8.45-0.41c-1.18,0.47-0.67,2.41,0.53,1.93
						c2.29-0.91,4.69-0.89,6.91,0.21C78.07,43.44,79.09,41.71,77.93,41.14z"/>
					<circle class="st2" cx="73.63" cy="45.6" r="1.89"/>
				</g>
				<g>
					<path class="st2" d="M51.61,41.14c2.68-1.32,5.66-1.52,8.45-0.41c1.18,0.47,0.67,2.41-0.53,1.93
						c-2.29-0.91-4.69-0.89-6.91,0.21C51.47,43.44,50.46,41.71,51.61,41.14z"/>
					<circle class="st2" cx="55.91" cy="45.6" r="1.89"/>
				</g>
			</g>
			<path class="st9" d="M58.63,64.51c0.66,2.48,3.16,4.33,6.15,4.33c2.99,0,5.48-1.85,6.15-4.33H58.63z"/>
		</g>
	</g>
</g>
</svg>
