<?xml version="1.0" encoding="utf-8"?>
<!-- Generator: Adobe Illustrator 27.2.0, SVG Export Plug-In . SVG Version: 6.00 Build 0)  -->
<svg version="1.1" id="Слой_1" xmlns="http://www.w3.org/2000/svg" xmlns:xlink="http://www.w3.org/1999/xlink" x="0px" y="0px"
	 viewBox="0 0 130 130" style="enable-background:new 0 0 130 130;" xml:space="preserve">
<style type="text/css">
	.st0{fill:#D7EAF1;}
	.st1{fill:#051733;}
	.st2{fill:#E30081;}
	.st3{fill:#A80060;}
	.st4{fill:#F69779;}
	.st5{fill:#F37A67;}
	.st6{fill:#FF54B6;}
	.st7{fill:#FFFFFF;}
</style>
<g>
	<path class="st0" d="M129.57,65.47c0,18.33-7.62,34.89-19.86,46.67c-2.42,2.34-5.02,4.48-7.78,6.41c-1.58,1.12-3.22,2.16-4.9,3.13
		c-9.36,5.38-20.2,8.49-31.76,8.57c-0.17,0.01-0.33,0.01-0.5,0.01c-0.17,0-0.33,0-0.5-0.01c-10.69-0.07-20.77-2.74-29.63-7.41
		c-1.91-1-3.76-2.09-5.55-3.29c-3.32-2.18-6.41-4.66-9.26-7.41C7.59,100.36-0.03,83.8-0.03,65.47c0-35.79,29.01-64.8,64.8-64.8
		S129.57,29.68,129.57,65.47z"/>
	<g>
		<g>
			<path class="st1" d="M100.88,71.99c-0.91-1.89-2.34-3.57-2.81-5.61c-0.44-1.91,0.02-3.89,0.4-5.82c0.83-4.19,1.27-8.69-0.44-12.6
				c-1.85-4.23-5.93-7.12-8.07-11.21c-2.33-4.47-2.16-10.06-5.08-14.17c-2.89-4.07-8.14-5.74-13.1-6.27
				c-0.93-0.1-1.93-0.05-2.91,0.12c-2.71,0.48-5.5,0.48-8.21,0c-0.98-0.17-1.98-0.22-2.91-0.12c-4.96,0.53-10.21,2.2-13.1,6.27
				c-2.92,4.12-2.75,9.7-5.08,14.17c-2.13,4.1-6.21,6.98-8.07,11.21c-1.71,3.91-1.27,8.41-0.44,12.6c0.38,1.92,0.84,3.91,0.4,5.82
				c-0.47,2.05-1.9,3.72-2.81,5.61c-2.03,4.23-1.34,9.87,1.97,13.18c8.47,8.47,34.14,2.62,34.14,2.62s25.66,5.85,34.14-2.62
				C102.22,81.86,102.91,76.22,100.88,71.99z"/>
			<path class="st2" d="M109.71,112.14c-2.42,2.34-5.02,4.48-7.78,6.41c-1.58,1.12-3.22,2.16-4.9,3.13
				c-9.36,5.38-20.2,8.49-31.76,8.57c-0.17,0.01-0.33,0.01-0.5,0.01c-0.17,0-0.33,0-0.5-0.01c-10.69-0.07-20.77-2.74-29.63-7.41
				c-1.91-1-3.76-2.09-5.55-3.29c-3.32-2.18-6.41-4.66-9.26-7.41c3.29-4.86,8.01-8.65,13.58-10.79l5.97-2.3
				c2.21-0.85,4.26-1.99,6.11-3.37l0.01-0.01c2.27-1.68,4.23-3.72,5.82-6.04c0.51-0.73,0.97-1.49,1.4-2.27
				c0.15-0.27,0.29-0.55,0.43-0.83c0.11-0.21,0.21-0.42,0.3-0.63c0.09-0.18,0.17-0.36,0.25-0.55c0.21-0.46,0.4-0.93,0.57-1.41
				c0.13-0.34,0.25-0.69,0.36-1.04c0.19-0.59,0.36-1.18,0.5-1.78c0.07-0.28,0.14-0.56,0.19-0.84l0.35-1.7l0.93-4.46l1.06-5.14h14.22
				l1.06,5.14l1.28,6.16c0.08,0.39,0.17,0.77,0.27,1.15c0.12,0.5,0.27,0.99,0.42,1.47c0.19,0.6,0.4,1.19,0.64,1.77
				c0.09,0.25,0.2,0.49,0.31,0.74c0.25,0.57,0.51,1.12,0.8,1.67c0.17,0.31,0.34,0.61,0.51,0.91c0.33,0.56,0.68,1.11,1.05,1.64
				c1.59,2.32,3.55,4.36,5.82,6.04c1.85,1.39,3.91,2.52,6.12,3.38l5.97,2.3C101.7,103.49,106.42,107.28,109.71,112.14z"/>
			<g>
				<path class="st3" d="M65.27,107.66v22.59c-0.17,0.01-0.33,0.01-0.5,0.01c-0.17,0-0.33,0-0.5-0.01v-22.59
					c0-0.09,0.02-0.18,0.05-0.25v-0.01c0.09-0.18,0.25-0.3,0.45-0.3c0.2,0,0.36,0.12,0.45,0.3v0.01
					C65.25,107.48,65.27,107.57,65.27,107.66z"/>
			</g>
			<path class="st4" d="M77.17,87.99c-9.79,8.56-12.4,23.17-12.4,23.17s-0.89-11.33-12.05-23.8c1.2-2.19,2.08-4.57,2.6-7.08
				l0.35-1.7l1.99-9.6h14.22l2.34,11.3c0.5,2.4,1.33,4.69,2.44,6.8C76.83,87.39,77,87.69,77.17,87.99z"/>
			<g>
				<g>
					<path class="st5" d="M76.66,87.08c-2.83,0.86-4.92,0.86-4.92,0.86s-10.27,0-16.07-9.36l1.99-9.6h14.22l2.34,11.3
						C74.72,82.68,75.55,84.97,76.66,87.08z"/>
				</g>
			</g>
			<g>
				<g>
					<path class="st4" d="M89.19,49.44c-0.12-0.8-0.42-1.61-1.03-2.14c-0.55-0.48-1.3-0.67-2.03-0.64
						c-0.73,0.03-1.43,0.27-2.09,0.59c0,0-0.06-18.44-6.6-18.65c-4.29-0.21-6.19,1.07-12.68,1.07c-6.49,0-8.4-1.29-12.68-1.07
						c-6.54,0.21-6.6,18.65-6.6,18.65c-0.66-0.32-1.36-0.56-2.09-0.59c-0.73-0.03-1.48,0.17-2.03,0.64
						c-0.61,0.53-0.9,1.34-1.03,2.14c-0.24,1.6,0.14,3.29,1.05,4.63s2.26,2.35,3.84,2.71c2.79,19.5,19.54,19.5,19.54,19.5
						s16.76,0,19.54-19.5c1.58-0.36,2.92-1.37,3.84-2.71S89.44,51.04,89.19,49.44z"/>
				</g>
			</g>
		</g>
		<g>
			<g>
				<path class="st6" d="M76.21,93.38l9.11,4.56l-7.53-13.27c0,0-0.81-1.78-3.37-1.78L76.21,93.38z"/>
				<path class="st3" d="M64.77,111.16c0,0,4.72-12.4,11.44-17.78l-1.78-10.5C74.42,82.88,65.27,100.16,64.77,111.16z"/>
			</g>
			<g>
				<path class="st6" d="M53.32,93.38l-9.11,4.56l7.53-13.27c0,0,0.81-1.78,3.37-1.78L53.32,93.38z"/>
				<path class="st3" d="M64.77,111.16c0,0-4.72-12.4-11.44-17.78l1.78-10.5C55.11,82.88,64.27,100.16,64.77,111.16z"/>
			</g>
		</g>
		<g>
			<path class="st3" d="M101.93,118.55c-1.58,1.12-3.22,2.16-4.9,3.13l3.39-9.48L101.93,118.55z"/>
			<path class="st3" d="M34.64,122.84c-1.91-1-3.76-2.09-5.55-3.29l1.75-7.35L34.64,122.84z"/>
		</g>
		<g>
			<path class="st5" d="M63.83,46.29v11.44h1.94C69.09,57.73,64.44,47.6,63.83,46.29z"/>
			<g>
				<g>
					<path class="st1" d="M77.92,41.83c-2.68-1.32-5.66-1.52-8.45-0.41c-1.18,0.47-0.67,2.41,0.53,1.93
						c2.29-0.91,4.69-0.89,6.91,0.21C78.07,44.13,79.08,42.4,77.92,41.83z"/>
					<path class="st1" d="M75.51,45.4c-0.61-1.06-1.89-0.99-1.89-0.99c-1.04,0-1.89,0.84-1.89,1.89c0,1.04,0.84,1.89,1.89,1.89
						c0.23,0,0.45-0.05,0.65-0.12l0,0.01c0.01,0,0.02-0.01,0.03-0.02c0.06-0.02,0.12-0.05,0.18-0.08c1.65-0.72,1.82-2.55,1.82-2.55
						C75.98,45.69,75.51,45.4,75.51,45.4z"/>
				</g>
				<g>
					<path class="st1" d="M51.61,41.83c2.68-1.32,5.66-1.52,8.45-0.41c1.18,0.47,0.67,2.41-0.53,1.93
						c-2.29-0.91-4.69-0.89-6.91,0.21C51.47,44.13,50.45,42.4,51.61,41.83z"/>
					<path class="st1" d="M54.02,45.4c0.61-1.06,1.89-0.99,1.89-0.99c1.04,0,1.89,0.84,1.89,1.89c0,1.04-0.84,1.89-1.89,1.89
						c-0.23,0-0.45-0.05-0.65-0.12l0,0.01c-0.01,0-0.02-0.01-0.03-0.02c-0.06-0.02-0.12-0.05-0.18-0.08
						c-1.65-0.72-1.82-2.55-1.82-2.55C53.55,45.69,54.02,45.4,54.02,45.4z"/>
				</g>
			</g>
			<path class="st7" d="M58.62,63.82c0.66,2.48,3.16,4.33,6.15,4.33c2.99,0,5.48-1.85,6.15-4.33H58.62z"/>
		</g>
	</g>
</g>
</svg>
