<?xml version="1.0" encoding="utf-8"?>
<!-- Generator: Adobe Illustrator 27.2.0, SVG Export Plug-In . SVG Version: 6.00 Build 0)  -->
<svg version="1.1" id="Слой_1" xmlns="http://www.w3.org/2000/svg" xmlns:xlink="http://www.w3.org/1999/xlink" x="0px" y="0px"
	 viewBox="0 0 130 130" style="enable-background:new 0 0 130 130;" xml:space="preserve">
<style type="text/css">
	.st0{fill:#D7EAF1;}
	.st1{fill:#FFA33B;}
	.st2{fill:#FF863B;}
	.st3{fill:#86201B;}
	.st4{fill:#611714;}
	.st5{fill:#051733;}
	.st6{fill:#FFFFFF;}
</style>
<g>
	<path class="st0" d="M129.94,65.47c0,15.75-5.62,30.19-14.97,41.41c-4.11,4.94-8.94,9.27-14.34,12.8c-1.4,0.92-2.84,1.79-4.32,2.6
		c-9.25,5.09-19.87,7.98-31.17,7.98c-12.07,0-23.37-3.3-33.04-9.05c-1.37-0.81-2.7-1.67-4-2.58c-5.31-3.7-10.03-8.18-14.01-13.27
		c-8.61-11-13.74-24.84-13.74-39.89c0-35.79,29.01-64.8,64.79-64.8C100.93,0.67,129.94,29.68,129.94,65.47z"/>
	<g>
		<g>
			<path class="st1" d="M114.97,106.88c-4.11,4.94-8.94,9.27-14.34,12.8c-1.4,0.92-2.84,1.79-4.32,2.6
				c-9.25,5.09-19.87,7.98-31.17,7.98c-12.07,0-23.37-3.3-33.04-9.05c-1.37-0.81-2.7-1.67-4-2.58c-5.31-3.7-10.03-8.18-14.01-13.27
				c1.9-5.41,6.34-9.64,11.99-11.2l15.53-4.29l5.49-1.52l4.95-1.37l1.68-9.4l0.77-4.37l0.76-4.23l9.04,3.54l9.04-3.54l0.76,4.23
				l1.83,10.27l0.62,3.5l4.95,1.37l5.49,1.52l15.53,4.29C108.69,95.86,113.42,100.75,114.97,106.88z"/>
			<path class="st2" d="M81.5,88.35l-0.16,0.3c-2.65,14.51-13.57,22.82-14.05,23.18c-0.88,0.67-1.94,1-2.99,1
				c-1.05,0-2.11-0.33-2.99-1c-0.48-0.36-11.4-8.67-14.05-23.18l-0.16-0.3l4.95-1.37l3.21-18l9.04,3.54l9.04-3.54l3.21,18
				L81.5,88.35z"/>
			<path class="st3" d="M76.55,86.98c-2.06,13.22-12.25,20.84-12.25,20.84s-10.19-7.62-12.25-20.84l1.68-9.4l1.53-8.6l9.04,3.54
				l9.04-3.54l2.59,14.5L76.55,86.98z"/>
			<path class="st4" d="M75.93,83.48c-3.96,1.75-7.32,1.75-7.32,1.75s-8.98,0-14.88-7.65l1.53-8.6l9.04,3.54l9.04-3.54L75.93,83.48z
				"/>
			<path class="st5" d="M90.98,43.58c0.47-0.23,0.81-0.71,0.86-1.24c0.05-0.52-0.22-1.28-0.64-1.59c0.29-0.4,0.37-0.94,0.2-1.41
				c-0.17-0.46-0.53-1.2-1.01-1.32c0.66-0.95,0.61-2.21-0.34-2.88c0.62-0.9,0.61-2.62-0.33-3.19c0.32-0.49,0.37-1.15,0.12-1.69
				c-0.25-0.53-0.84-1.08-1.42-1.15c0.16-0.59,0.18-1.21,0.04-1.81c-0.08-0.35-0.22-0.7-0.48-0.94c-0.26-0.24-0.86-0.54-1.18-0.39
				c-0.05-0.56-0.1-1.14-0.4-1.61c-0.3-0.47-1.05-0.92-1.55-0.67c0.1-0.63-0.17-1.32-0.69-1.7s-1.5-0.43-2.08-0.16
				c-0.17-0.58-0.41-1.15-0.85-1.57c-0.43-0.42-1.09-0.69-1.66-0.49c-0.02-0.94-0.91-1.78-1.86-1.73c-0.2,0.01-0.43,0.01-0.33,0.18
				c-0.06-0.68-0.7-1.19-1.36-1.32c-0.67-0.13-1.45,0.17-2.11,0.34c-0.24-0.6-0.81-1.06-1.46-1.16c-0.64-0.1-1.48,0.01-1.89,0.51
				c-0.78-0.99-2.71-1.15-3.81-0.54c-0.32-0.93-1.45-1.17-2.43-1.17c-0.98,0-2.12,0.24-2.43,1.17c-1.1-0.62-3.03-0.45-3.81,0.54
				c-0.41-0.5-1.25-0.61-1.89-0.51c-0.64,0.1-1.22,0.56-1.46,1.16c-0.66-0.17-1.45-0.47-2.11-0.34c-0.67,0.13-1.31,0.64-1.36,1.32
				c0.1-0.17-0.13-0.17-0.33-0.18c-0.94-0.05-1.84,0.78-1.86,1.73c-0.57-0.2-1.22,0.07-1.66,0.49c-0.43,0.42-0.68,0.99-0.85,1.57
				c-0.58-0.28-1.57-0.23-2.08,0.16c-0.51,0.39-0.79,1.07-0.69,1.7c-0.5-0.25-1.25,0.19-1.55,0.67c-0.3,0.47-0.36,1.05-0.4,1.61
				c-0.32-0.16-0.92,0.14-1.18,0.39c-0.26,0.24-0.4,0.59-0.48,0.94c-0.14,0.59-0.12,1.22,0.04,1.81c-0.58,0.07-1.18,0.62-1.42,1.15
				c-0.25,0.53-0.2,1.2,0.12,1.69c-0.94,0.56-0.96,2.28-0.33,3.19c-0.95,0.66-1,1.92-0.34,2.88c-0.48,0.12-0.85,0.86-1.01,1.32
				c-0.17,0.46-0.09,1.01,0.2,1.41c-0.42,0.31-0.69,1.07-0.64,1.59c0.05,0.52,0.38,1.01,0.86,1.24c-0.79,0.81-0.5,2.6,0.48,3.16
				c-0.2,0.19-0.3,0.71-0.42,0.96c-0.08,0.17-0.11,0.36-0.14,0.54c-0.07,0.41-0.14,0.83-0.02,1.22c0.12,0.39,0.51,0.73,0.92,0.66
				c-0.67,0.8-0.35,2.69,0.48,3.31c-0.28,0.66,0.31,1.85,0.82,2.35c0.51,0.5,1.34,0.63,1.98,0.33c-0.14,0.56-0.11,1.25,0.04,1.81
				c0.15,0.56,0.68,1.07,1.26,0.99c-0.08,0.53,0.13,1.17,0.4,1.63c0.27,0.46,0.89,0.75,1.37,0.5c-0.21,0.49,0.02,1.27,0.33,1.71
				s0.84,0.7,1.37,0.68c-0.06,0.8,0.55,1.72,1.3,2c0.64,0.24,1.36,0.11,2.03-0.02c0.41-0.08,0.82-0.16,1.24-0.24l13.23-1.6
				l13.23,1.6c0.41,0.08,0.82,0.16,1.24,0.24c0.67,0.13,1.39,0.26,2.03,0.02c0.75-0.28,1.36-1.19,1.3-2
				c0.53,0.02,1.07-0.24,1.37-0.68c0.3-0.44,0.53-1.21,0.33-1.71c0.48,0.25,1.1-0.04,1.37-0.5c0.27-0.46,0.48-1.1,0.4-1.63
				c0.58,0.08,1.11-0.42,1.26-0.99c0.15-0.56,0.19-1.24,0.04-1.81c0.65,0.3,1.47,0.17,1.98-0.33c0.51-0.5,1.1-1.69,0.82-2.35
				c0.83-0.63,1.15-2.52,0.48-3.31c0.41,0.07,0.79-0.27,0.92-0.66c0.12-0.39,0.05-0.82-0.02-1.22c-0.03-0.18-0.07-0.37-0.14-0.54
				c-0.11-0.25-0.22-0.77-0.42-0.96C91.48,46.19,91.77,44.39,90.98,43.58z"/>
			<path class="st3" d="M88.73,49.44c-0.12-0.8-0.42-1.61-1.03-2.14c-0.55-0.48-1.3-0.67-2.03-0.64c-0.73,0.03-1.43,0.27-2.09,0.59
				c0,0-0.06-18.44-6.6-18.65c-4.29-0.21-6.19,1.07-12.68,1.07c-6.49,0-8.4-1.29-12.68-1.07c-6.54,0.21-6.6,18.65-6.6,18.65
				c-0.66-0.32-1.36-0.56-2.09-0.59c-0.73-0.03-1.48,0.17-2.03,0.64c-0.61,0.53-0.9,1.34-1.03,2.14c-0.24,1.6,0.14,3.29,1.05,4.63
				c0.91,1.34,2.26,2.35,3.84,2.71c2.79,19.5,19.54,19.5,19.54,19.5s16.76,0,19.54-19.5c1.58-0.36,2.92-1.37,3.84-2.71
				S88.98,51.04,88.73,49.44z"/>
		</g>
		<g>
			<g>
				<g>
					<path class="st1" d="M61.85,47.28c-0.44-1.55-1.87-2.69-3.55-2.69h-6.45c-1.48,0-2.76,0.88-3.35,2.14
						c-0.22,0.47-0.34,1-0.34,1.55v2.91c0,2.03,1.66,3.68,3.69,3.68h6.45c2.03,0,3.69-1.65,3.69-3.68v-2.91
						C61.99,47.93,61.94,47.6,61.85,47.28z M59.99,51.19c0,0.92-0.76,1.68-1.69,1.68h-6.45c-0.93,0-1.69-0.76-1.69-1.68v-2.96
						c0.01-0.01,0.01-0.01,0-0.02V48.2c0.05-0.9,0.79-1.61,1.69-1.61h6.45c0.93,0,1.69,0.76,1.69,1.69V51.19z"/>
				</g>
				<g>
					<path class="st1" d="M49.17,49.28c-0.17,0-0.34-0.04-0.5-0.14l-4.15-2.42c-0.48-0.28-0.64-0.89-0.36-1.37
						c0.28-0.48,0.89-0.64,1.37-0.36l4.15,2.42c0.48,0.28,0.64,0.89,0.36,1.37C49.85,49.1,49.51,49.28,49.17,49.28z"/>
				</g>
			</g>
			<g>
				<g>
					<path class="st1" d="M80.1,46.73c-0.59-1.26-1.87-2.14-3.35-2.14H70.3c-1.68,0-3.11,1.14-3.54,2.69c-0.1,0.32-0.15,0.65-0.15,1
						v2.91c0,2.03,1.66,3.68,3.69,3.68h6.45c2.03,0,3.69-1.65,3.69-3.68v-2.91C80.44,47.73,80.32,47.2,80.1,46.73z M78.44,51.19
						c0,0.92-0.76,1.68-1.69,1.68H70.3c-0.93,0-1.69-0.76-1.69-1.68v-2.91c0-0.93,0.76-1.69,1.69-1.69h6.45
						c0.9,0,1.64,0.71,1.69,1.61v0.01c-0.01,0.01-0.01,0.01,0,0.02V51.19z"/>
				</g>
				<g>
					<path class="st1" d="M79.44,49.28c-0.34,0-0.68-0.18-0.86-0.5c-0.28-0.48-0.12-1.09,0.36-1.37L83.08,45
						c0.48-0.28,1.09-0.12,1.37,0.36c0.28,0.48,0.12,1.09-0.36,1.37l-4.15,2.42C79.79,49.24,79.61,49.28,79.44,49.28z"/>
				</g>
			</g>
			<g>
				<path class="st1" d="M67.62,49.28h-6.62c-0.55,0-1-0.45-1-1c0-0.55,0.45-1,1-1h6.62c0.55,0,1,0.45,1,1
					C68.62,48.83,68.17,49.28,67.62,49.28z"/>
			</g>
		</g>
		<g>
			<path class="st2" d="M100.63,119.68c-1.4,0.92-2.84,1.79-4.32,2.6l2.78-15.18L100.63,119.68z"/>
			<path class="st2" d="M32.1,121.21c-1.37-0.81-2.7-1.67-4-2.58l1.41-11.53L32.1,121.21z"/>
		</g>
		<g>
			<path class="st4" d="M63.36,49.42v11.44h1.94C68.63,60.86,63.98,50.74,63.36,49.42z"/>
			<g>
				<g>
					<path class="st5" d="M77.46,41.99c-2.68-1.32-5.66-1.52-8.45-0.41c-1.18,0.47-0.67,2.41,0.53,1.93
						c2.29-0.91,4.69-0.89,6.91,0.21C77.6,44.29,78.62,42.56,77.46,41.99z"/>
					<path class="st5" d="M75.05,49.42c0,1.04-0.84,1.89-1.89,1.89c-1.04,0-1.89-0.84-1.89-1.89c0-1.04,0.84-1.89,1.89-1.89
						C74.21,47.54,75.05,48.38,75.05,49.42z"/>
				</g>
				<g>
					<g>
						<path class="st5" d="M51.15,41.99c2.68-1.32,5.66-1.52,8.45-0.41c1.18,0.47,0.67,2.41-0.53,1.93
							c-2.29-0.91-4.69-0.89-6.91,0.21C51,44.29,49.99,42.56,51.15,41.99z"/>
						<path class="st5" d="M53.56,49.42c0,1.04,0.84,1.89,1.89,1.89c1.04,0,1.89-0.84,1.89-1.89c0-1.04-0.84-1.89-1.89-1.89
							C54.4,47.54,53.56,48.38,53.56,49.42z"/>
					</g>
				</g>
			</g>
			<path class="st6" d="M58.16,63.41c0.66,2.48,3.16,4.33,6.15,4.33c2.99,0,5.48-1.85,6.15-4.33H58.16z"/>
		</g>
	</g>
</g>
</svg>
