<?xml version="1.0" encoding="utf-8"?>
<!-- Generator: Adobe Illustrator 27.2.0, SVG Export Plug-In . SVG Version: 6.00 Build 0)  -->
<svg version="1.1" id="Слой_1" xmlns="http://www.w3.org/2000/svg" xmlns:xlink="http://www.w3.org/1999/xlink" x="0px" y="0px"
	 viewBox="0 0 130 130" style="enable-background:new 0 0 130 130;" xml:space="preserve">
<style type="text/css">
	.st0{fill:#D7EAF1;}
	.st1{fill:#FFFFFF;}
	.st2{fill:#F69779;}
	.st3{fill:#F37A67;}
	.st4{fill:#A1CC36;}
	.st5{fill:#051733;}
	.st6{fill:#718F26;}
	.st7{fill:#BFE06C;}
</style>
<g>
	<path class="st0" d="M129.94,65.47c0,15.98-5.78,30.6-15.36,41.89c-3.92,4.62-8.48,8.69-13.54,12.06
		c-1.76,1.18-3.59,2.27-5.47,3.27c-6.92,3.69-14.6,6.17-22.74,7.13c-2.52,0.3-5.09,0.45-7.69,0.45c-3.17,0-6.29-0.23-9.34-0.67
		c-8.26-1.19-16.01-3.94-22.95-7.94h-0.01c-1.77-1.02-3.49-2.12-5.15-3.3c-4.93-3.51-9.35-7.68-13.13-12.39
		C5.67,94.88,0.35,80.8,0.35,65.47c0-35.79,29.01-64.8,64.79-64.8C100.93,0.67,129.94,29.68,129.94,65.47z"/>
	<g>
		<g>
			<path class="st1" d="M114.58,107.36c-3.92,4.62-8.48,8.69-13.54,12.06c-1.76,1.18-3.59,2.27-5.47,3.27
				c-6.92,3.69-14.6,6.17-22.74,7.13c-2.52,0.3-5.09,0.45-7.69,0.45c-3.17,0-6.29-0.23-9.34-0.67c-8.26-1.19-16.01-3.94-22.95-7.94
				h-0.01c-1.77-1.02-3.49-2.12-5.15-3.3c-4.93-3.51-9.35-7.68-13.13-12.39c0.01-0.04,0.03-0.07,0.05-0.11
				c0.12-0.27,0.24-0.53,0.37-0.78c0.1-0.21,0.21-0.42,0.33-0.62c0.04-0.09,0.09-0.18,0.15-0.27c0.1-0.18,0.21-0.36,0.32-0.53
				c0.09-0.15,0.18-0.29,0.27-0.43c0.17-0.26,0.36-0.52,0.55-0.77c0.16-0.23,0.33-0.45,0.51-0.66c0.17-0.21,0.35-0.42,0.53-0.62
				c0.05-0.06,0.11-0.12,0.16-0.17c0.2-0.22,0.41-0.44,0.63-0.65c0.03-0.03,0.05-0.05,0.07-0.07c0.21-0.2,0.43-0.4,0.65-0.59
				c0.25-0.22,0.5-0.43,0.76-0.63c0.21-0.17,0.43-0.33,0.65-0.48c0.29-0.21,0.58-0.41,0.89-0.59c0.17-0.11,0.35-0.22,0.54-0.32
				c0.54-0.32,1.1-0.6,1.68-0.85c0.2-0.09,0.39-0.17,0.59-0.25c0.3-0.12,0.6-0.23,0.91-0.33c0.3-0.1,0.6-0.2,0.91-0.28l15.53-4.29
				l0.52-0.14l3.17-0.88l1.81-0.5l0.69-0.19h33l0.69,0.19l1.81,0.5l3.17,0.88l0.52,0.14l15.53,4.29
				C108.24,97.55,112.72,101.86,114.58,107.36z"/>
			<path class="st2" d="M81.49,90.16c-3.83,5.05-10.1,8.34-17.19,8.34c-7.09,0-13.36-3.29-17.19-8.34l4.94-1.37l1.87-10.5l1.34-7.5
				l9.04,3.54l9.04-3.54l2.94,16.48l0.27,1.52L81.49,90.16z"/>
			<path class="st3" d="M76.28,87.27c-3.28,1.16-5.83,1.16-5.83,1.16s-10.83,0-16.53-10.14l1.34-7.5l9.04,3.54l9.04-3.54
				L76.28,87.27z"/>
			<g>
				<g>
					<path class="st4" d="M114.58,107.36c-3.92,4.62-8.48,8.69-13.54,12.06c-1.76,1.18-3.59,2.27-5.47,3.27
						c-6.92,3.69-14.6,6.17-22.74,7.13c-1.32-9.32,0.29-19.45,0.29-19.45c0-1.1,0.18-2.4,0.48-3.78c1.13-5.37,3.92-11.89,3.92-11.89
						l0.77-0.54l5.01-3.5l3.17,0.88l0.52,0.14l15.53,4.29C108.24,97.55,112.72,101.86,114.58,107.36z"/>
					<path class="st4" d="M55.8,129.6c-8.26-1.19-16.01-3.94-22.95-7.94h-0.01c-1.77-1.02-3.49-2.12-5.15-3.3
						c-4.93-3.51-9.35-7.68-13.13-12.39c0.01-0.04,0.03-0.07,0.05-0.11c0.12-0.27,0.24-0.53,0.37-0.78c0.1-0.21,0.21-0.42,0.33-0.62
						c0.04-0.09,0.09-0.18,0.15-0.27c0.1-0.18,0.21-0.36,0.32-0.53c0.09-0.15,0.18-0.29,0.27-0.43c0.17-0.26,0.36-0.52,0.55-0.77
						c0.16-0.23,0.33-0.45,0.51-0.66c0.17-0.21,0.35-0.42,0.53-0.62c0.05-0.06,0.11-0.12,0.16-0.17c0.2-0.22,0.41-0.44,0.63-0.65
						c0.03-0.03,0.05-0.05,0.07-0.07c0.21-0.2,0.43-0.4,0.65-0.59c0.25-0.22,0.5-0.43,0.76-0.63c0.21-0.17,0.43-0.33,0.65-0.48
						c0.29-0.21,0.58-0.41,0.89-0.59c0.17-0.11,0.35-0.22,0.54-0.32c0.54-0.32,1.1-0.6,1.68-0.85c0.2-0.09,0.39-0.17,0.59-0.25
						c0.3-0.12,0.6-0.23,0.91-0.33c0.3-0.1,0.6-0.2,0.91-0.28l15.53-4.29l0.52-0.14l3.17-0.88l5.01,3.5l0.77,0.54
						c0,0,2.79,6.52,3.92,11.89v0.01c0.3,1.38,0.48,2.67,0.48,3.77C55.48,110.37,57.06,120.34,55.8,129.6z"/>
				</g>
			</g>
			<path class="st5" d="M84.05,31.54c-2.31-4.34-6.73-6.74-10.81-8.06c-5.8-1.89-12.08-1.89-17.88,0c-4.07,1.33-8.5,3.73-10.81,8.06
				c-4.18,8-3.47,20.46-3.47,20.46l4.36,4.62l18.86-2.39l18.86,2.39L87.52,52C87.52,52,88.23,39.55,84.05,31.54z"/>
			<path class="st2" d="M88.73,51.24c-0.12-0.8-0.42-1.61-1.03-2.14c-0.55-0.48-1.3-0.67-2.03-0.64c-0.73,0.03-1.43,0.27-2.09,0.59
				c0,0-0.06-18.44-6.6-18.65c-4.29-0.21-6.19,1.07-12.68,1.07c-6.49,0-8.4-1.29-12.68-1.07c-6.54,0.21-6.6,18.65-6.6,18.65
				c-0.66-0.32-1.36-0.56-2.09-0.59c-0.73-0.03-1.48,0.17-2.03,0.64c-0.61,0.53-0.9,1.34-1.03,2.14c-0.24,1.6,0.14,3.29,1.05,4.63
				c0.91,1.34,2.26,2.35,3.84,2.71c2.79,19.5,19.54,19.5,19.54,19.5s16.76,0,19.54-19.5c1.58-0.36,2.92-1.37,3.84-2.71
				S88.98,52.84,88.73,51.24z"/>
		</g>
		<g>
			<g>
				<path class="st6" d="M78.29,99.17c0,0-4.09,4.74-5.17,11.2l3.01-23.74l2.16,1.33V99.17z"/>
				<path class="st7" d="M75.04,80.28c0,0,8.21,3.58,11.23,8.75l1.3,15.73l-9.28-5.6L75.04,80.28z"/>
			</g>
			<g>
				<path class="st6" d="M50.32,99.17c0,0,4.09,4.74,5.17,11.2l-3.01-23.74l-2.16,1.33V99.17z"/>
				<path class="st7" d="M53.57,80.28c0,0-8.21,3.58-11.23,8.75l-1.3,15.73l9.28-5.6L53.57,80.28z"/>
			</g>
		</g>
		<path class="st5" d="M41.21,45.36c0,0-2.11-17.61,9.1-25.38v3.05c0,0,12-11.51,28.23-4.03l-3.34,1.18c0,0,7.18,0.2,10.92,5.11
			l-3.54,0.2c0,0,4.43,1.67,5.51,6.59l-3.34-1.7c0,0,4.13,5.55,2.75,16.35l-5.99-15.43l-2.76-2.85l-13.59-1.57l-13.07,0.3
			l-4.96,3.22l-2.02,5.24L41.21,45.36z"/>
		<g>
			<path class="st3" d="M63.36,48.4v11.44h1.94C68.63,59.84,63.98,49.72,63.36,48.4z"/>
			<g>
				<g>
					<path class="st5" d="M77.46,43.95c-2.68-1.32-5.66-1.52-8.45-0.41c-1.18,0.47-0.67,2.41,0.53,1.93
						c2.29-0.91,4.69-0.89,6.91,0.21C77.6,46.24,78.62,44.52,77.46,43.95z"/>
					<circle class="st5" cx="73.16" cy="48.4" r="1.89"/>
				</g>
				<g>
					<path class="st5" d="M51.15,43.95c2.68-1.32,5.66-1.52,8.45-0.41c1.18,0.47,0.67,2.41-0.53,1.93
						c-2.29-0.91-4.69-0.89-6.91,0.21C51,46.24,49.99,44.52,51.15,43.95z"/>
					<circle class="st5" cx="55.44" cy="48.4" r="1.89"/>
				</g>
			</g>
			<path class="st1" d="M58.16,64.31c0.66,2.48,3.16,4.33,6.15,4.33c2.99,0,5.48-1.85,6.15-4.33H58.16z"/>
		</g>
		<g>
			<path class="st6" d="M101.04,119.42c-1.76,1.18-3.59,2.27-5.47,3.27l3.52-19.22L101.04,119.42z"/>
			<path class="st6" d="M32.84,121.66c-1.77-1.02-3.49-2.12-5.15-3.3l1.82-14.89L32.84,121.66z"/>
		</g>
	</g>
</g>
</svg>
