<?xml version="1.0" encoding="utf-8"?>
<!-- Generator: Adobe Illustrator 27.2.0, SVG Export Plug-In . SVG Version: 6.00 Build 0)  -->
<svg version="1.1" id="Слой_1" xmlns="http://www.w3.org/2000/svg" xmlns:xlink="http://www.w3.org/1999/xlink" x="0px" y="0px"
	 viewBox="0 0 130 130" style="enable-background:new 0 0 130 130;" xml:space="preserve">
<style type="text/css">
	.st0{fill:#D7EAF1;}
	.st1{fill:#E44424;}
	.st2{fill:#F69779;}
	.st3{fill:#F37A67;}
	.st4{fill:#662D8E;}
	.st5{fill:#051733;}
	.st6{fill:#FFFFFF;}
	.st7{fill:#472063;}
</style>
<g>
	<path class="st0" d="M129.95,65.47c0,18.71-7.93,35.57-20.62,47.41c-4.1,3.82-8.7,7.12-13.7,9.78c-9.08,4.86-19.46,7.61-30.48,7.61
		s-21.4-2.75-30.48-7.6c-5-2.67-9.6-5.97-13.7-9.79C8.28,101.04,0.35,84.18,0.35,65.47c0-35.79,29.01-64.8,64.8-64.8
		S129.95,29.68,129.95,65.47z"/>
	<g>
		<path class="st1" d="M51.65,22.06c0,0,6-7.6,16.25-7.6s20.5,18,23,31.75s7.75,63.5,7.75,63.5H33.9l4.3-69.11
			c0.23-3.67,1.15-7.28,2.88-10.53C43.09,26.34,46.4,22.49,51.65,22.06z"/>
		<path class="st2" d="M109.33,112.88c-4.1,3.82-8.7,7.12-13.7,9.78c-9.08,4.86-19.46,7.61-30.48,7.61s-21.4-2.75-30.48-7.6
			c-5-2.67-9.6-5.97-13.7-9.79c3.24-4.35,7.67-7.74,12.82-9.72l0.53-0.2l5.44-2.1c2.3-0.89,4.43-2.08,6.35-3.55
			c4.86-3.7,8.31-9.08,9.59-15.22l0.17-0.84l1.1-5.32v-0.01l1.07-5.13h14.22l1.06,5.14l1.28,6.16c0.9,4.32,2.87,8.26,5.66,11.5
			c1.17,1.37,2.49,2.62,3.93,3.72c1.92,1.47,4.05,2.66,6.35,3.55l5.97,2.3c0.51,0.2,1,0.41,1.5,0.63h0.01
			C102.53,105.82,106.41,108.96,109.33,112.88z"/>
		<path class="st3" d="M80.26,93.59C76.78,94.91,74,94.91,74,94.91s-13.22,0-18.13-13.66l2.17-10.46h14.22l2.34,11.3
			C75.5,86.41,77.47,90.35,80.26,93.59z"/>
		<path class="st2" d="M72.73,30.8c-4.06-2.99-7.58-3.83-7.58-3.83s-3.52,0.84-7.58,3.83c-5.56,4.09-12.13,12.23-11.96,27.78
			c2.78,19.5,19.54,19.5,19.54,19.5s16.76,0,19.54-19.5C84.86,43.03,78.29,34.89,72.73,30.8z"/>
		<path class="st4" d="M95.63,122.66c-9.08,4.86-19.46,7.61-30.48,7.61s-21.4-2.75-30.48-7.6c0.53-1.06,1-2.1,1.43-3.12
			c1.51-3.59,2.43-6.91,2.97-9.83c0.69-3.69,0.77-6.73,0.69-8.86c2.3-0.89,4.43-2.08,6.35-3.55v9.26c0,1.09,0.13,2.14,0.39,3.15
			c1.4,5.61,6.47,9.75,12.5,9.75h12.3c6.03,0,11.1-4.14,12.5-9.75c0.26-1.01,0.39-2.06,0.39-3.15v-9.26
			c1.92,1.47,4.05,2.66,6.35,3.55c-0.09,2.13,0,5.17,0.69,8.86C91.93,113.46,93.25,117.87,95.63,122.66z"/>
		<g>
			<path class="st3" d="M64.21,48.39v11.44h1.94C69.47,59.83,64.83,49.7,64.21,48.39z"/>
			<g>
				<g>
					<path class="st1" d="M78.31,43.93c-2.68-1.32-5.66-1.52-8.45-0.41c-1.18,0.47-0.67,2.41,0.53,1.93
						c2.29-0.91,4.69-0.89,6.91,0.21C78.45,46.23,79.46,44.5,78.31,43.93z"/>
					<path class="st5" d="M75.89,47.49c-0.61-1.06-1.89-0.99-1.89-0.99c-1.04,0-1.89,0.84-1.89,1.89c0,1.04,0.84,1.89,1.89,1.89
						c0.23,0,0.45-0.05,0.65-0.12l0,0.01c0.01,0,0.02-0.01,0.03-0.02c0.06-0.02,0.12-0.05,0.18-0.08c1.65-0.72,1.82-2.55,1.82-2.55
						C76.36,47.79,75.89,47.49,75.89,47.49z"/>
				</g>
				<g>
					<path class="st1" d="M51.99,43.93c2.68-1.32,5.66-1.52,8.45-0.41c1.18,0.47,0.67,2.41-0.53,1.93
						c-2.29-0.91-4.69-0.89-6.91,0.21C51.85,46.23,50.83,44.5,51.99,43.93z"/>
					<path class="st5" d="M54.4,47.49c0.61-1.06,1.89-0.99,1.89-0.99c1.04,0,1.89,0.84,1.89,1.89c0,1.04-0.84,1.89-1.89,1.89
						c-0.23,0-0.45-0.05-0.65-0.12l0,0.01c-0.01,0-0.02-0.01-0.03-0.02c-0.06-0.02-0.12-0.05-0.18-0.08
						c-1.65-0.72-1.82-2.55-1.82-2.55C53.93,47.79,54.4,47.49,54.4,47.49z"/>
				</g>
			</g>
			<path class="st6" d="M59,65.92c0.66,2.48,3.16,4.33,6.15,4.33c2.99,0,5.48-1.85,6.15-4.33H59z"/>
		</g>
		<path class="st7" d="M95.63,122.66c-9.08,4.86-19.46,7.61-30.48,7.61s-21.4-2.75-30.48-7.6c0.53-1.06,1-2.1,1.43-3.12
			c11.09-2.77,28.11,6.1,28.11,6.1c15.19-9.05,25.44-4.56,25.44-4.56c-1.72-5.79,1.58-11.37,1.58-11.37
			C91.93,113.46,93.25,117.87,95.63,122.66z"/>
	</g>
</g>
</svg>
