<?xml version="1.0" encoding="utf-8"?>
<!-- Generator: Adobe Illustrator 27.2.0, SVG Export Plug-In . SVG Version: 6.00 Build 0)  -->
<svg version="1.1" id="Слой_1" xmlns="http://www.w3.org/2000/svg" xmlns:xlink="http://www.w3.org/1999/xlink" x="0px" y="0px"
	 viewBox="0 0 130 130" style="enable-background:new 0 0 130 130;" xml:space="preserve">
<style type="text/css">
	.st0{fill:#D7EAF1;}
	.st1{fill:#0C415B;}
	.st2{fill:#051733;}
	.st3{fill:#F69779;}
	.st4{fill:#F37A67;}
	.st5{fill:#F03832;}
	.st6{fill:#B32A25;}
	.st7{fill:#FFFFFF;}
</style>
<g>
	<path class="st0" d="M129.94,65.47c0,15.64-5.54,29.99-14.77,41.18c-3.85,4.68-8.34,8.81-13.35,12.24
		c-1.71,1.19-3.48,2.28-5.31,3.29c-9.29,5.16-19.98,8.09-31.36,8.09c-11.37,0-22.07-2.93-31.36-8.09c-1.83-1-3.6-2.1-5.31-3.28
		c-5.01-3.44-9.5-7.56-13.35-12.24C5.89,95.47,0.35,81.12,0.35,65.47c0-35.79,29.01-64.8,64.8-64.8
		C100.93,0.67,129.94,29.68,129.94,65.47z"/>
	<g>
		<g>
			<g>
				<path class="st1" d="M115.17,106.65c-3.85,4.68-8.34,8.81-13.35,12.24c-1.71,1.19-3.48,2.28-5.31,3.29
					c-9.29,5.16-19.98,8.09-31.36,8.09c-11.37,0-22.07-2.93-31.36-8.09c-1.83-1-3.6-2.1-5.31-3.28c-5.01-3.44-9.5-7.56-13.35-12.24
					c1.99-5.17,6.33-9.18,11.8-10.69l15.53-4.29l0.77-0.21l9.67-2.68l0.15-0.83h24.2l0.07,0.41l0.08,0.42l9.67,2.68l0.77,0.21
					l15.53,4.29C108.84,97.48,113.17,101.49,115.17,106.65z"/>
				<path class="st2" d="M87.07,91.47l-0.28,0.76c-0.08,0.22-0.16,0.43-0.25,0.61c-2.62,7.27-11.03,12.07-21.39,12.07
					c-10.37,0-18.77-4.8-21.39-12.07c-0.09-0.19-0.17-0.39-0.25-0.61l-0.28-0.76l9.67-2.68l0.15-0.83h24.2l0.15,0.83L87.07,91.47z"
					/>
				<path class="st3" d="M77.4,88.79c-0.04,0.11-0.1,0.2-0.15,0.3c-0.87,3.29-5.95,5.82-12.1,5.82s-11.23-2.53-12.1-5.82
					c-0.05-0.1-0.11-0.19-0.15-0.3l1.97-11.04l1.24-6.96l9.04,3.54l9.04-3.54l3.13,17.58L77.4,88.79z"/>
				<path class="st4" d="M77.32,88.37c-2.97,0.95-5.2,0.95-5.2,0.95s-11.83,0-17.25-11.57l1.24-6.96l9.04,3.54l9.04-3.54
					L77.32,88.37z"/>
			</g>
			<path class="st5" d="M43.28,36.48c0,0-12.39,18.24,0.89,21.55l7.9-9.07V36.48H43.28z"/>
			<path class="st2" d="M84.9,31.54c-2.31-4.34-6.73-6.74-10.81-8.06c-5.8-1.89-12.08-1.89-17.88,0c-4.07,1.33-8.5,3.73-10.81,8.06
				c-4.18,8-3.47,20.46-3.47,20.46l4.36,4.62l18.86-2.39l18.86,2.39L88.37,52C88.37,52,89.08,39.55,84.9,31.54z"/>
			<path class="st3" d="M89.58,51.24c-0.12-0.8-0.42-1.61-1.03-2.14c-0.55-0.48-1.3-0.67-2.03-0.64c-0.73,0.03-1.43,0.27-2.09,0.59
				c0,0-0.06-18.44-6.6-18.65c-4.29-0.21-6.19,1.07-12.68,1.07c-6.49,0-8.4-1.29-12.68-1.07c-6.54,0.21-6.6,18.65-6.6,18.65
				c-0.66-0.32-1.36-0.56-2.09-0.59c-0.73-0.03-1.48,0.17-2.03,0.64c-0.61,0.53-0.9,1.34-1.03,2.14c-0.24,1.6,0.14,3.29,1.05,4.63
				c0.91,1.34,2.26,2.35,3.84,2.71c2.79,19.5,19.54,19.5,19.54,19.5s16.76,0,19.54-19.5c1.58-0.36,2.92-1.37,3.84-2.71
				S89.83,52.84,89.58,51.24z"/>
		</g>
		<circle class="st6" cx="65.15" cy="18.33" r="2.33"/>
		<path class="st6" d="M65.15,19.55c0,0-21.58-0.23-22.34,21.18h22.34H87.5C86.74,19.32,65.15,19.55,65.15,19.55z"/>
		<path class="st5" d="M65.15,19.55c0,0-14.73-0.23-15.25,21.18h15.25H80.4C79.88,19.32,65.15,19.55,65.15,19.55z"/>
		<g>
			<path class="st4" d="M64.21,51.9v11.44h1.94C69.48,63.34,64.83,53.22,64.21,51.9z"/>
			<g>
				<g>
					<path class="st2" d="M78.31,47.45c-2.68-1.32-5.66-1.52-8.45-0.41c-1.18,0.47-0.67,2.41,0.53,1.93
						c2.29-0.91,4.69-0.89,6.91,0.21C78.45,49.74,79.47,48.02,78.31,47.45z"/>
					<circle class="st2" cx="74.01" cy="51.9" r="1.89"/>
				</g>
				<g>
					<path class="st2" d="M52,47.45c2.68-1.32,5.66-1.52,8.45-0.41c1.18,0.47,0.67,2.41-0.53,1.93c-2.29-0.91-4.69-0.89-6.91,0.21
						C51.85,49.74,50.84,48.02,52,47.45z"/>
					<circle class="st2" cx="56.29" cy="51.9" r="1.89"/>
				</g>
			</g>
			<path class="st7" d="M59.01,67.81c0.66,2.48,3.16,4.33,6.15,4.33c2.99,0,5.48-1.85,6.15-4.33H59.01z"/>
		</g>
		<g>
			<path class="st2" d="M101.82,118.89c-1.71,1.19-3.48,2.28-5.31,3.29l3.43-18.71L101.82,118.89z"/>
			<path class="st2" d="M33.79,122.18c-1.83-1-3.6-2.1-5.31-3.28l1.88-15.43L33.79,122.18z"/>
		</g>
	</g>
</g>
</svg>
