<?xml version="1.0" encoding="utf-8"?>
<!-- Generator: Adobe Illustrator 27.2.0, SVG Export Plug-In . SVG Version: 6.00 Build 0)  -->
<svg version="1.1" id="Слой_1" xmlns="http://www.w3.org/2000/svg" xmlns:xlink="http://www.w3.org/1999/xlink" x="0px" y="0px"
	 viewBox="0 0 130 130" style="enable-background:new 0 0 130 130;" xml:space="preserve">
<style type="text/css">
	.st0{fill:#D7EAF1;}
	.st1{fill:#BD948F;}
	.st2{fill:#3D3936;}
	.st3{fill:#F69779;}
	.st4{fill:#F37A67;}
	.st5{fill:#051733;}
	.st6{fill:#9C7672;}
	.st7{fill:#FFFFFF;}
</style>
<g>
	<path class="st0" d="M129.94,65.46c0,15.71-5.59,30.12-14.9,41.34c-3.96,4.78-8.59,8.98-13.76,12.45
		c-1.98,1.34-4.03,2.56-6.16,3.67c-8.96,4.69-19.16,7.34-29.98,7.34c-11.58,0-22.45-3.04-31.85-8.36c-2.02-1.14-3.97-2.38-5.84-3.73
		c-5.08-3.64-9.62-8-13.45-12.93C5.44,94.26,0.35,80.45,0.35,65.46c0-35.78,29.01-64.79,64.79-64.79
		C100.93,0.67,129.94,29.68,129.94,65.46z"/>
	<g>
		<g>
			<g>
				<path class="st1" d="M115.04,106.8c-3.96,4.78-8.59,8.98-13.76,12.45c-1.98,1.34-4.03,2.56-6.16,3.67
					c-8.96,4.69-19.16,7.34-29.98,7.34c-11.58,0-22.45-3.04-31.85-8.36c-2.02-1.14-3.97-2.38-5.84-3.73
					c-5.08-3.64-9.62-8-13.45-12.93c1.84-5.54,6.34-9.89,12.08-11.47l15.53-4.29l5.6-1.55l4.84-1.34l0.24-1.32h24.02l0.24,1.32
					l4.84,1.34l5.6,1.55l15.53,4.29C108.79,95.5,113.58,100.52,115.04,106.8z"/>
				<path class="st2" d="M76.32,85.27H52.29l-0.24,1.32l-4.84,1.34l0.14,0.38c0.07,0.18,0.14,0.34,0.2,0.48
					c1.82,5.28,8.58,8.92,16.75,8.92s14.93-3.64,16.75-8.92c0.06-0.14,0.13-0.3,0.2-0.48l0.14-0.38l-4.84-1.34L76.32,85.27z"/>
				<path class="st3" d="M76.55,86.59c-0.04,0.11-0.1,0.2-0.15,0.3c-0.87,3.29-5.95,5.82-12.1,5.82c-6.15,0-11.23-2.53-12.1-5.82
					c-0.05-0.1-0.11-0.19-0.15-0.3l1.94-10.88l1.27-7.12l9.04,3.54l9.04-3.54l2.85,16L76.55,86.59z"/>
				<path class="st4" d="M76.19,84.59c-3.23,1.13-5.74,1.13-5.74,1.13s-10.75,0-16.46-10.01l1.27-7.12l9.04,3.54l9.04-3.54
					L76.19,84.59z"/>
			</g>
			<g>
				<path class="st5" d="M72.42,22.57c0,0,10.67-0.97,14.08,6.67c2.5,5.59,4.15,35.2-7.86,36.98L68.57,24.86L72.42,22.57z"/>
				<path class="st5" d="M56.18,22.57c0,0-10.67-0.97-14.08,6.67c-2.5,5.59-4.15,35.2,7.86,36.98l10.08-41.36L56.18,22.57z"/>
			</g>
			<path class="st3" d="M88.73,49.05c-0.12-0.8-0.42-1.61-1.03-2.14c-0.55-0.48-1.3-0.67-2.03-0.64c-0.73,0.03-1.43,0.27-2.09,0.59
				c0,0-0.06-18.44-6.6-18.65c-4.29-0.21-6.19,1.07-12.68,1.07c-6.49,0-8.4-1.29-12.68-1.07c-6.54,0.21-6.6,18.65-6.6,18.65
				c-0.66-0.32-1.36-0.56-2.09-0.59c-0.73-0.03-1.48,0.17-2.03,0.64c-0.61,0.53-0.9,1.34-1.03,2.14c-0.24,1.6,0.14,3.29,1.05,4.63
				c0.91,1.34,2.26,2.35,3.84,2.71c2.79,19.5,19.54,19.5,19.54,19.5s16.76,0,19.54-19.5c1.58-0.36,2.92-1.37,3.84-2.71
				S88.98,50.65,88.73,49.05z"/>
		</g>
		<path class="st5" d="M76.99,28.21c0,0,0.81-7.94-18.76-7.94c-10.38,0-13.93,6.52-15.27,9.63l3.41-1.04c0,0-4.15,5.48-3.41,9.34
			c0,0,5.93-5.63,10.82-6.08C58.67,31.68,72.03,30.96,76.99,28.21z"/>
		<g>
			<path class="st6" d="M101.28,119.25c-1.98,1.34-4.03,2.56-6.16,3.67l3.97-21.65L101.28,119.25z"/>
			<path class="st6" d="M33.29,121.9c-2.02-1.14-3.97-2.38-5.84-3.73l2.06-16.9L33.29,121.9z"/>
		</g>
		<g>
			<path class="st4" d="M63.36,49.71v11.44h1.94C68.63,61.15,63.98,51.02,63.36,49.71z"/>
			<g>
				<g>
					<path class="st5" d="M77.46,45.25c-2.68-1.32-5.66-1.52-8.45-0.41c-1.18,0.47-0.67,2.41,0.53,1.93
						c2.29-0.91,4.69-0.89,6.91,0.21C77.6,47.55,78.62,45.82,77.46,45.25z"/>
					<circle class="st5" cx="73.16" cy="49.71" r="1.89"/>
				</g>
				<g>
					<path class="st5" d="M51.15,45.25c2.68-1.32,5.66-1.52,8.45-0.41c1.18,0.47,0.67,2.41-0.53,1.93
						c-2.29-0.91-4.69-0.89-6.91,0.21C51,47.55,49.99,45.82,51.15,45.25z"/>
					<circle class="st5" cx="55.44" cy="49.71" r="1.89"/>
				</g>
			</g>
			<path class="st7" d="M58.16,65.62c0.66,2.48,3.16,4.33,6.15,4.33c2.99,0,5.48-1.85,6.15-4.33H58.16z"/>
		</g>
	</g>
</g>
</svg>
