<?xml version="1.0" encoding="utf-8"?>
<!-- Generator: Adobe Illustrator 27.2.0, SVG Export Plug-In . SVG Version: 6.00 Build 0)  -->
<svg version="1.1" id="Слой_1" xmlns="http://www.w3.org/2000/svg" xmlns:xlink="http://www.w3.org/1999/xlink" x="0px" y="0px"
	 viewBox="0 0 130 130" style="enable-background:new 0 0 130 130;" xml:space="preserve">
<style type="text/css">
	.st0{fill:#D7EAF1;}
	.st1{fill:#051733;}
	.st2{fill:#F69779;}
	.st3{fill:#F37A67;}
	.st4{fill:#F03832;}
	.st5{fill:#BF2D28;}
	.st6{fill:#FFFFFF;}
</style>
<g>
	<path class="st0" d="M129.95,65.46c0,14.34-4.66,27.59-12.54,38.32c-1.35,1.84-2.8,3.61-4.33,5.29c-0.91,1-1.85,1.98-2.83,2.92
		c-11.66,11.31-27.56,18.27-45.1,18.27s-33.44-6.96-45.1-18.27c-0.98-0.94-1.92-1.92-2.83-2.92c-1.53-1.68-2.98-3.45-4.33-5.29
		C5.01,93.05,0.35,79.8,0.35,65.46c0-35.78,29.01-64.79,64.8-64.79S129.95,29.68,129.95,65.46z"/>
	<g>
		<path class="st1" d="M102.26,83.74c-1.6-2.42-3.8-4.64-4.26-7.5c-0.63-3.85,2.07-7.46,2.47-11.34c0.34-3.3-1.01-6.55-2.73-9.4
			c-1.72-2.84-3.83-5.45-5.26-8.45c-2.74-5.7-2.02-13.58-4.6-19.35c-3.7-8.28-13.65-12.43-22.72-12.43
			c-9.07,0-19.01,4.15-22.72,12.43c-2.58,5.77-1.87,13.65-4.6,19.35c-1.44,2.99-3.55,5.61-5.26,8.45c-1.72,2.84-3.07,6.09-2.73,9.4
			c0.4,3.88,3.09,7.49,2.47,11.34c-0.47,2.87-2.66,5.08-4.26,7.5c-2.34,3.54-3.53,7.86-3.11,12.08c0.42,4.22,2.48,8.29,5.76,10.98
			l34.46,1.61l34.46-1.61c3.28-2.69,5.34-6.76,5.76-10.98C105.79,91.6,104.6,87.27,102.26,83.74z"/>
		<g>
			<g>
				<path class="st2" d="M110.25,111.99c-11.66,11.31-27.56,18.27-45.1,18.27s-33.44-6.96-45.1-18.27c0.96-1.47,2.07-2.84,3.28-4.1
					c1.42-1.47,3-2.79,4.7-3.92c0.89-0.62,1.82-1.17,2.79-1.66c0.96-0.51,1.95-0.96,2.97-1.35l5.97-2.3
					c8.16-3.14,14.16-10.21,15.94-18.77l0.29-1.38l0.99-4.78l1.06-5.14h14.22l1.06,5.14l1.28,6.16c0.84,4.03,2.61,7.74,5.11,10.86
					c2.81,3.49,6.52,6.25,10.83,7.91l5.97,2.3c1.02,0.39,2.01,0.84,2.97,1.35c0.97,0.49,1.9,1.04,2.79,1.66
					c1.7,1.13,3.28,2.45,4.7,3.92C108.18,109.15,109.29,110.52,110.25,111.99z"/>
			</g>
		</g>
		<path class="st3" d="M79.71,90.75C76.49,91.87,74,91.87,74,91.87s-13.02,0-18.01-13.36l2.05-9.92h14.22l2.34,11.3
			C75.44,83.92,77.21,87.63,79.71,90.75z"/>
		<path class="st4" d="M117.41,103.78c-1.35,1.84-2.8,3.61-4.33,5.29c-0.91,1-1.85,1.98-2.83,2.92
			c-11.66,11.31-27.56,18.27-45.1,18.27s-33.44-6.96-45.1-18.27c-0.98-0.94-1.92-1.92-2.83-2.92c-1.53-1.68-2.98-3.45-4.33-5.29
			c0.02-0.05,0.05-0.1,0.07-0.15c2.36-5.01,7.65-6.99,12.41-5.36c0.39,0.13,0.78,0.29,1.16,0.47c1.71,0.82,3.16,2.06,4.29,3.57
			c0.88,1.18,1.57,2.51,2.05,3.95c2.51-1.93,5.67-2.68,8.82-1.81c1.93,0.54,3.63,1.63,5,3.09c0.86,0.92,1.59,1.99,2.17,3.16
			c1.22-1.3,2.67-2.29,4.27-2.86h0.01c1.3-0.47,2.7-0.66,4.14-0.53c1.14,0.1,2.22,0.4,3.23,0.87l0.01,0.01
			c1.83,0.83,3.42,2.23,4.63,3.99c1.21-1.76,2.8-3.16,4.63-3.99l0.01-0.01c1.01-0.47,2.09-0.77,3.23-0.87
			c1.44-0.13,2.84,0.06,4.14,0.53h0.01c1.6,0.57,3.05,1.56,4.27,2.86c0.58-1.17,1.31-2.24,2.17-3.16c1.37-1.46,3.07-2.55,5-3.09
			c3.15-0.87,6.31-0.12,8.82,1.81c0.48-1.44,1.17-2.77,2.05-3.95c1.13-1.51,2.58-2.75,4.29-3.57c0.38-0.18,0.77-0.34,1.16-0.47
			c4.76-1.63,10.05,0.35,12.41,5.36C117.36,103.68,117.39,103.73,117.41,103.78z"/>
		<path class="st5" d="M113.08,109.07c-0.91,1-1.85,1.98-2.83,2.92c-11.66,11.31-27.56,18.27-45.1,18.27s-33.44-6.96-45.1-18.27
			c-0.98-0.94-1.92-1.92-2.83-2.92c1.85-1.05,3.99-1.46,6.11-1.18c1.09,0.14,2.16,0.45,3.2,0.95c3.03,1.46,5.24,4.23,6.34,7.51
			c2.51-1.92,5.67-2.67,8.82-1.8c3.15,0.88,5.67,3.21,7.17,6.25c2.21-2.37,5.21-3.69,8.42-3.4c3.21,0.3,6,2.14,7.87,4.88
			c1.87-2.74,4.66-4.58,7.87-4.88c3.21-0.29,6.21,1.03,8.42,3.4c1.5-3.04,4.02-5.37,7.17-6.25c3.15-0.87,6.31-0.12,8.82,1.8
			c1.1-3.28,3.31-6.05,6.34-7.51c1.04-0.5,2.11-0.81,3.2-0.95C109.09,107.61,111.23,108.02,113.08,109.07z"/>
		<path class="st2" d="M83.15,35.07c-5.6-9-18-12-18-12s-12.4,3-18,12c0,0-2.68,8.02-1.54,21.31c2.78,19.5,19.54,19.5,19.54,19.5
			s16.76,0,19.54-19.5C85.83,43.09,83.15,35.07,83.15,35.07z"/>
		<path class="st1" d="M70.2,23.18c-2.21,3.26-6.87,3.8-9.72,6.51c-2.77,2.64-3.32,6.77-4.38,10.45c-0.23,0.79-0.51,1.6-1.05,2.22
			c-1.22,1.38-3.35,1.38-5,2.21c-3.05,1.54-3.81,5.46-4.32,8.83c-0.51,3.38-1.58,7.31-4.79,8.48c-0.78-10.13-0.3-20.71,4.26-29.78
			c4.56-9.07,14.01-16.26,24.14-15.61C70.96,16.44,72.89,18.89,70.2,23.18z"/>
		<g>
			<path class="st3" d="M64.21,46.34v11.44h1.94C69.47,57.78,64.83,47.66,64.21,46.34z"/>
			<g>
				<g>
					<path class="st1" d="M78.31,41.89c-2.68-1.32-5.66-1.52-8.45-0.41c-1.18,0.47-0.67,2.41,0.53,1.93
						c2.29-0.91,4.69-0.89,6.91,0.21C78.45,44.18,79.46,42.46,78.31,41.89z"/>
					<path class="st1" d="M75.89,45.45c-0.61-1.06-1.89-0.99-1.89-0.99c-1.04,0-1.89,0.84-1.89,1.89s0.84,1.89,1.89,1.89
						c0.23,0,0.45-0.05,0.65-0.12l0,0.01c0.01,0,0.02-0.01,0.03-0.02c0.06-0.02,0.12-0.05,0.18-0.08c1.65-0.72,1.82-2.55,1.82-2.55
						C76.36,45.74,75.89,45.45,75.89,45.45z"/>
				</g>
				<g>
					<path class="st1" d="M51.99,41.89c2.68-1.32,5.66-1.52,8.45-0.41c1.18,0.47,0.67,2.41-0.53,1.93
						c-2.29-0.91-4.69-0.89-6.91,0.21C51.85,44.18,50.83,42.46,51.99,41.89z"/>
					<path class="st1" d="M54.4,45.45c0.61-1.06,1.89-0.99,1.89-0.99c1.04,0,1.89,0.84,1.89,1.89s-0.84,1.89-1.89,1.89
						c-0.23,0-0.45-0.05-0.65-0.12l0,0.01c-0.01,0-0.02-0.01-0.03-0.02c-0.06-0.02-0.12-0.05-0.18-0.08
						c-1.65-0.72-1.82-2.55-1.82-2.55C53.93,45.74,54.4,45.45,54.4,45.45z"/>
				</g>
			</g>
			<path class="st6" d="M59,63.87c0.66,2.48,3.16,4.33,6.15,4.33c2.99,0,5.48-1.85,6.15-4.33H59z"/>
		</g>
	</g>
</g>
</svg>
