<svg width="88" height="15" viewBox="0 0 88 15" fill="none" xmlns="http://www.w3.org/2000/svg">
<g clip-path="url(#clip0_1_147)">
<path d="M69.9112 5.73058C69.7633 5.27782 69.3701 4.94786 68.8968 4.8795L64.9006 4.30153L63.1133 0.697992C62.9017 0.271163 62.4648 0.000976562 61.9865 0.000976562C61.5083 0.000976562 61.0715 0.271246 60.8598 0.698076L59.0728 4.30153L55.0764 4.8795C54.6031 4.94786 54.2098 5.27782 54.062 5.73058C53.9142 6.18333 54.0375 6.68027 54.3801 7.01248L57.2719 9.81738L56.5891 13.7784C56.5082 14.2476 56.702 14.7218 57.0889 15.0015C57.3078 15.1598 57.5671 15.2403 57.8276 15.2403C58.0276 15.2403 58.2284 15.1929 58.4122 15.0966L61.9865 13.2264L65.5611 15.0966C65.9844 15.3179 66.4973 15.2812 66.8844 15.0014C67.2714 14.7217 67.4651 14.2475 67.3843 13.7783L66.7017 9.81722L69.5931 7.0124C69.9357 6.68019 70.059 6.18325 69.9112 5.73058Z" fill="#FFD751"/>
<path d="M69.9114 5.72952C69.7635 5.27684 69.3704 4.94689 68.8971 4.87853L64.9009 4.30072L63.1137 0.697016C62.902 0.270186 62.4652 0 61.9869 0V13.2255L65.5616 15.0956C65.9848 15.3168 66.4978 15.2802 66.8849 15.0003C67.2718 14.7206 67.4656 14.2464 67.3847 13.7773L66.7022 9.81632L69.5936 7.01126C69.936 6.67921 70.0592 6.18219 69.9114 5.72952Z" fill="#F4C82A"/>
<path d="M87.9115 5.73058C87.7635 5.27782 87.3704 4.94786 86.8971 4.8795L82.9009 4.30153L81.1135 0.697992C80.9019 0.271163 80.4651 0.000976562 79.9868 0.000976562C79.5085 0.000976562 79.0717 0.271246 78.8601 0.698076L77.0731 4.30153L73.0766 4.8795C72.6033 4.94786 72.21 5.27782 72.0622 5.73058C71.9145 6.18333 72.0378 6.68027 72.3803 7.01248L75.2721 9.81738L74.5893 13.7784C74.5085 14.2476 74.7022 14.7218 75.0892 15.0015C75.3081 15.1598 75.5673 15.2403 75.8279 15.2403C76.0279 15.2403 76.2287 15.1929 76.4125 15.0966L79.9868 13.2264L83.5614 15.0966C83.9847 15.3179 84.4976 15.2812 84.8847 15.0014C85.2716 14.7217 85.4654 14.2475 85.3845 13.7783L84.7019 9.81722L87.5934 7.0124C87.9359 6.68019 88.0592 6.18325 87.9115 5.73058Z" fill="#FFD751"/>
<path d="M87.9116 5.72952C87.7638 5.27684 87.3706 4.94689 86.8973 4.87853L82.9011 4.30072L81.114 0.697016C80.9023 0.270186 80.4654 0 79.9872 0V13.2255L83.5618 15.0956C83.9851 15.3168 84.498 15.2802 84.8851 15.0003C85.272 14.7206 85.4658 14.2464 85.385 13.7773L84.7024 9.81632L87.5939 7.01126C87.9362 6.67921 88.0595 6.18219 87.9116 5.72952Z" fill="#F4C82A"/>
</g>
<defs>
<clipPath id="clip0_1_147">
<rect width="88" height="15" fill="white"/>
</clipPath>
</defs>
</svg>
