<svg width="88" height="15" viewBox="0 0 88 15" fill="none" xmlns="http://www.w3.org/2000/svg">
<g clip-path="url(#clip0_1_199)">
<path d="M87.9115 5.73058C87.7635 5.27782 87.3704 4.94786 86.8971 4.8795L82.9009 4.30153L81.1135 0.697992C80.9019 0.271163 80.4651 0.000976562 79.9868 0.000976562C79.5085 0.000976562 79.0717 0.271246 78.8601 0.698076L77.0731 4.30153L73.0766 4.8795C72.6033 4.94786 72.21 5.27782 72.0622 5.73058C71.9145 6.18333 72.0378 6.68027 72.3803 7.01248L75.2721 9.81738L74.5893 13.7784C74.5085 14.2476 74.7022 14.7218 75.0892 15.0015C75.3081 15.1598 75.5673 15.2403 75.8279 15.2403C76.0279 15.2403 76.2287 15.1929 76.4125 15.0966L79.9868 13.2264L83.5614 15.0966C83.9847 15.3179 84.4976 15.2812 84.8847 15.0014C85.2716 14.7217 85.4654 14.2475 85.3845 13.7783L84.7019 9.81722L87.5934 7.0124C87.9359 6.68019 88.0592 6.18325 87.9115 5.73058Z" fill="#FFD751"/>
<path d="M87.9116 5.72952C87.7638 5.27684 87.3706 4.94689 86.8973 4.87853L82.9011 4.30072L81.114 0.697016C80.9023 0.270186 80.4654 0 79.9872 0V13.2255L83.5618 15.0956C83.9851 15.3168 84.498 15.2802 84.8851 15.0003C85.272 14.7206 85.4658 14.2464 85.385 13.7773L84.7024 9.81632L87.5939 7.01126C87.9362 6.67921 88.0595 6.18219 87.9116 5.72952Z" fill="#F4C82A"/>
</g>
<defs>
<clipPath id="clip0_1_199">
<rect width="88" height="15" fill="white"/>
</clipPath>
</defs>
</svg>
